<?xml version="1.0" encoding="UTF-8"?>
<svg id="_图层_2" data-name="图层 2" xmlns="http://www.w3.org/2000/svg" viewBox="0 0 1309.32 302.22">
  <defs>
    <style>
      .cls-1 {
        fill: #ebaf44;
      }

      .cls-2 {
        fill: #f4b442;
      }
    </style>
  </defs>
  <g id="crown_doodle_line" data-name="crown doodle line">
    <g>
      <path d="M64.18,102.28H194.26c33.89,0,60.48,15.12,54.74,49.79-3.65,23.2-18.51,37.54-38.06,44.32,21.38,5.73,33.89,20.07,29.72,47.44-5.74,35.71-35.71,53.96-71.43,53.96H33.42l30.76-195.51Zm42.23,116l-4.43,27.37h60.48c9.12,0,15.9-3.65,17.73-13.82,1.56-9.91-4.17-13.56-13.29-13.56h-60.48Zm10.17-63.87l-4.17,26.07h56.83c7.82,0,14.34-4.95,15.64-13.29,1.3-8.34-3.65-12.77-11.47-12.77h-56.83Z"/>
      <path d="M273.76,102.28h60.48l60.74,104.01,16.42-104.01h60.48l-31.02,195.51h-60.48l-61-102.45-16.16,102.45h-60.48l31.02-195.51Z"/>
      <path d="M488.03,102.28h130.08c33.89,0,60.48,15.12,54.74,49.79-3.65,23.2-18.51,37.54-38.06,44.32,21.38,5.73,33.89,20.07,29.72,47.44-5.74,35.71-35.71,53.96-71.43,53.96h-135.81l30.76-195.51Zm42.23,116l-4.43,27.37h60.48c9.12,0,15.9-3.65,17.73-13.82,1.56-9.91-4.17-13.56-13.29-13.56h-60.48Zm10.17-63.87l-4.17,26.07h56.83c7.82,0,14.34-4.95,15.64-13.29,1.3-8.34-3.65-12.77-11.47-12.77h-56.83Z"/>
      <path class="cls-1" d="M720.38,131.61h40.77l-10.41,65.59h29.69l55.17-65.59h47.64l-70.68,79.32,48.97,86.86h-49.85l-35.89-66.03h-30.58l-10.41,66.03h-40.77l26.37-166.18Z"/>
      <path class="cls-1" d="M900.96,131.61h40.77l-26.37,166.18h-40.77l26.37-166.18Z"/>
      <path class="cls-1" d="M965,131.61h40.77l61.6,103.7,16.62-103.7h40.77l-26.37,166.18h-40.77l-61.82-103.03-16.4,103.03h-40.77l26.37-166.18Z"/>
      <path class="cls-1" d="M1204.96,209.16h102.59l-13.96,88.63h-30.13l2.66-17.06c-14.18,12.63-33.68,21.49-61.38,21.49-55.17,0-85.53-29.91-76.44-87.52,9.31-57.61,48.97-87.52,104.8-87.52,40.99,0,68.25,16.17,76.22,47.42l-40.77,13.74c-4.65-16.84-18.39-25.7-40.99-25.7-32.35,0-52.73,19.06-58.05,52.07-5.32,33.01,9.31,52.07,41.66,52.07,23.93,0,41.66-10.86,50.96-30.13h-61.38l4.21-27.47Z"/>
    </g>
    <g>
      <path class="cls-2" d="M49.36,162.94c-19.81,.2-34.02-60.04-24.84-59.02,9.18,1.02,16.27,10.8,20.61,5.97,4.34-4.83,1.74-68.44,9.98-59.56,8.24,8.87,22.88,53.76,36.37,49.96,13.49-3.8,6.35-55.09,12.87-53.34,6.52,1.74,17.6,37.29,32.01,34.54,14.42-2.75,22.33-33.21,23.97-29.15,1.64,4.07,9.08,32.84,24,29.34,14.92-3.5,16.12-30.49,23.01-24.47,6.89,6.01,7.12,18.67,17.62,22.57s21.01-12.56,21.72-9.55-7.11,45.54-7.11,45.54c0,0-33.87-13.03-108.6,12.77-74.73,25.8-81.61,34.41-81.61,34.41Z"/>
      <path d="M49.74,193.81c-4.94,.19-14.48,.07-19.25-1.17-9.03-2.37-11.2-8.96-5.25-16.07,3.5-4.17,7.94-7.41,12.5-10.49,17.31-11.7,36.11-20.75,55.52-28.75,24.98-10.29,50.82-17.77,77.41-22.63,21.12-3.86,42.33-6.21,63.5-2.06,2.42,.48,3.8,.22,3.75-2.54-.24-12.61,1.27-25.09,4.61-37.43,.13-.49-.12-1.05-.2-1.59-20.3,6.16-32.67,1.7-38.42-21.64-1.3,1.81-2.4,3.28-3.43,4.78-3.37,4.92-7.14,9.51-12.11,13.16-11.22,8.25-22.58,6.05-28.85-5.54-2.03-3.75-3.09-7.84-4.44-11.85-2.37,.19-2.24,2.05-2.77,3.27-2.15,5.06-4.57,9.97-8.33,14.22-8.91,10.08-20.01,10.2-28.42,.28-4.03-4.76-6.54-10.29-8.67-16.01-.6-1.62-.65-3.57-2.54-4.82-1.34,1.94-1.03,3.82-1.23,5.58-.89,7.94-2.19,15.81-4.7,23.5-1.46,4.47-3.26,8.84-6.46,12.57-5.11,5.96-11.54,6.61-17.49,1.78-2.82-2.28-4.9-5.14-6.81-8.11-3.73-5.79-6.53-12-9.15-18.3-.68-1.64-.73-3.64-2.91-4.76-1.11,1.75-.91,3.58-1.11,5.33-.82,7.18-1.62,14.36-3.26,21.46-.8,3.46-1.73,6.88-3.23,10.16-4.76,10.45-13.11,13.25-23.49,7.78-2.36-1.24-4.47-2.88-6.72-4.32-.92-.59-1.59-1.6-3.78-1.56,1.3,3.45,2.39,6.64,3.69,9.74,4.56,10.87,9.23,21.7,13.79,32.57,1.34,3.19,2.47,6.46,2.02,10.36-2.82-.5-3.46-2.58-4.37-4.18-7.74-13.68-14.99-27.59-21.12-42.02-2.74-6.45-5.28-12.97-7.09-19.73-.38-1.42-.76-2.85-.91-4.31-.21-2.01,.65-3.65,2.68-4.58,1.79-.82,3.54-.58,4.97,.57,1.32,1.06,2.47,2.3,3.66,3.49,3.17,3.19,6.22,6.49,9.49,9.59,2.59,2.46,5.54,4.57,8.89,6.12,4.69,2.18,6.52,1.58,8.88-3.01,2.09-4.08,3.16-8.44,4.13-12.81,2.64-11.85,3.73-23.84,4.98-35.81,.21-2.02,.43-4.05,.75-6.07,.4-2.56,1.47-4.78,4.63-5.05,2.84-.23,4.21,1.54,5,3.78,1.03,2.95,2.07,5.91,3.02,8.89,3.12,9.84,6.7,19.49,11.68,28.61,1.15,2.1,2.42,4.16,3.85,6.1,5.15,7,7.95,6.67,12.02-1.39,1.8-3.57,3-7.31,4.01-11.11,2.51-9.43,3.51-19.01,4.01-28.62,.38-7.38,.56-14.77,.83-22.15,.02-.55-.03-1.11,0-1.66,.21-5.91,1.26-7.95,4.18-8.13,2.73-.17,3.73,1.42,4.92,7,1.64,7.74,3.35,15.46,5.19,23.16,1.51,6.28,3.86,12.28,6.73,18.09,1.39,2.82,3.04,5.51,5.28,7.81,4.3,4.43,8.48,4.41,13.14-.06,2.26-2.17,4.03-4.7,5.4-7.41,6.06-12.01,9.32-24.55,9.31-37.7,0-3.69-.06-7.38,.05-11.07,.04-1.46,.31-2.96,.75-4.37,.57-1.82,2.09-2.71,4.08-2.67,1.8,.03,2.85,1.05,3.34,2.58,.63,1.96,.51,3.99,.44,6.03-.43,12.81,1.19,25.38,3.91,37.82,.87,3.97,2.22,7.81,4.27,11.34,3.56,6.11,7.82,6.99,14.01,2.95,1.47-.96,2.92-2.04,4.11-3.28,9.87-10.27,16.75-21.92,19.24-35.51,.74-4.02,1.17-8.1,2.64-11.99,1.15-3.03,3.43-4.55,5.67-3.86,2.7,.83,3.29,2.94,2.9,5.33-.5,3.11-.97,6.25-1.83,9.29-2.86,10.15-2.35,20.17-.16,30.16,.56,2.55,1.63,4.9,3.12,7.05,2.94,4.23,7.23,6.12,12.61,5.12,8.36-1.55,15.88-4.81,21.52-11.22,1.28-1.45,2.59-2.9,4.45-3.72,2.38-1.04,4.69-1,6.55,.77,1.83,1.76,1.92,3.9,.76,6.13-.17,.33-.35,.7-.63,.95-6.63,6.05-7.95,14.1-9.76,21.86-3.12,13.34-3.66,26.81-2.97,40.3,.05,.92,.18,1.84,.18,2.76-.01,2.9-.59,5.67-3.76,7.08-3.25,1.45-5.62-.05-7.8-2.15-3.43-3.31-8.14-4.17-12.73-5.07-11.43-2.23-23.08-2.24-34.72-1.03-50.29,5.2-96.87,21.23-140.17,46.56-5.09,2.98-9.99,6.26-14.45,10.07-1.9,1.62-4.04,3.1-5.21,6.25,6.66,1.56,13.41,.4,19.55-.47"/>
    </g>
  </g>
</svg>